<svg version="1.1" id="Layer_1" xmlns="http://www.w3.org/2000/svg" xmlns:xlink="http://www.w3.org/1999/xlink" x="0px" y="0px"
	 width="100%" viewBox="0 0 395 313" enable-background="new 0 0 395 313" xml:space="preserve">
<path fill="#FEFFFE" opacity="1.000000" stroke="none" 
	d="
M281.000000,314.000000 
	C187.333344,314.000000 94.166702,314.000000 1.000037,314.000000 
	C1.000025,209.666702 1.000025,105.333405 1.000013,1.000079 
	C132.666611,1.000053 264.333221,1.000053 395.999878,1.000026 
	C395.999908,105.333252 395.999908,209.666504 395.999939,313.999878 
	C357.833344,314.000000 319.666656,314.000000 281.000000,314.000000 
M102.788757,118.741074 
	C107.536087,121.765549 111.920853,125.814003 117.090904,127.644569 
	C145.808487,137.812576 174.724762,147.418610 203.553360,157.274490 
	C209.636368,159.354141 215.595993,159.348495 221.629868,157.132248 
	C237.726547,151.219940 253.889420,145.484665 269.932587,139.431503 
	C275.332336,137.394150 280.051392,137.546036 285.126160,140.527023 
	C301.785217,150.312744 318.608704,159.818756 335.378265,169.416107 
	C343.985077,174.341858 352.611511,179.233322 361.505524,184.297668 
	C364.041931,179.758545 366.261017,175.787323 368.436737,171.893692 
	C367.469940,171.100739 367.124756,170.726456 366.703400,170.485077 
	C341.120789,155.829559 315.541931,141.167358 289.937317,126.550385 
	C282.514893,122.313126 274.824860,122.075851 266.840515,125.039902 
	C250.920883,130.949768 234.910904,136.617294 219.013229,142.584656 
	C214.542206,144.262924 210.428375,144.242493 205.933289,142.689774 
	C181.701279,134.319427 157.381317,126.203461 133.156525,117.812584 
	C127.548653,115.870148 122.194023,113.196587 117.351303,110.344734 
	C122.629593,110.295143 128.055374,109.424927 133.159866,110.342354 
	C152.161789,113.757561 171.138351,117.403984 189.970764,121.645927 
	C207.520081,125.598877 223.123108,122.746109 237.568954,111.767838 
	C250.295853,102.095879 263.446442,92.959061 276.697144,84.011200 
	C281.159607,80.997803 286.293732,78.495110 291.481628,77.125191 
	C311.918335,71.728638 332.501495,66.887657 353.023407,61.812599 
	C358.294312,60.509106 363.539978,59.103596 368.993835,57.694149 
	C367.763123,52.787277 366.680664,48.471451 365.554993,43.983299 
	C364.244843,44.168079 363.268188,44.219479 362.335846,44.449917 
	C337.934174,50.480888 313.442413,56.182289 289.194580,62.779980 
	C281.499634,64.873726 273.927124,68.552849 267.225464,72.926674 
	C253.005630,82.207176 239.396408,92.423050 225.533829,102.251183 
	C217.228882,108.139130 208.128372,110.219337 198.075577,108.197685 
	C179.961304,104.554825 161.815079,101.070328 143.706390,97.400330 
	C133.537018,95.339340 123.395027,93.447205 113.078362,96.325714 
	C109.428955,97.343956 105.814125,98.486115 101.807678,98.918709 
	C80.194771,81.278046 58.581871,63.637383 36.785095,45.846638 
	C33.512539,49.971172 30.664251,53.560982 27.670300,57.334381 
	C33.884029,62.404400 39.657722,67.163376 45.482651,71.858788 
	C60.511391,83.973297 75.562775,96.059708 90.460693,108.871437 
	C80.883247,119.908974 71.336784,130.973572 61.720123,141.976837 
	C50.908432,154.347443 40.033394,166.662689 28.943605,179.277649 
	C32.647911,182.524033 36.084507,185.535812 39.819553,188.809158 
	C42.176109,186.194595 44.288097,183.889923 46.358391,181.548370 
	C64.965340,160.503555 83.564964,139.452271 102.788757,118.741074 
M220.923141,295.567230 
	C223.409714,288.506256 225.996750,281.478241 228.330185,274.367035 
	C229.186493,271.757355 230.424835,270.716248 233.297546,270.761871 
	C244.284897,270.936493 255.278503,270.941559 266.265594,270.758850 
	C269.156921,270.710754 270.322968,271.772186 271.183197,274.375305 
	C273.583710,281.639221 276.176331,288.844452 278.920929,295.985260 
	C279.396057,297.221436 280.918732,298.797394 282.071503,298.897003 
	C286.172546,299.251190 290.322815,299.035309 294.876892,299.035309 
	C294.153503,296.835419 293.627563,295.108612 293.021057,293.410614 
	C282.334656,263.492798 271.627319,233.582489 260.950623,203.661209 
	C257.426544,193.785034 257.454681,193.981308 247.000381,193.700394 
	C243.099991,193.595581 241.610474,194.997391 240.373932,198.516129 
	C231.109421,224.879913 221.610275,251.161194 212.199707,277.473724 
	C209.693512,284.481171 207.239716,291.507324 204.580460,299.038605 
	C209.226807,299.038605 213.223770,299.247192 217.175247,298.914886 
	C218.403183,298.811615 219.507828,297.242188 220.923141,295.567230 
M194.906616,254.447922 
	C205.541779,244.996948 206.187500,232.554733 204.448959,219.893784 
	C202.424973,205.154099 194.788437,196.481384 180.004257,194.975006 
	C165.242844,193.470932 150.208572,194.645035 135.133972,194.645035 
	C135.133972,229.141235 135.133972,263.870972 135.133972,298.680359 
	C140.134567,298.680359 144.846664,298.680359 150.048309,298.680359 
	C150.048309,286.417175 150.048309,274.508026 150.048309,262.060516 
	C158.168076,262.060516 165.801697,262.202026 173.427673,262.020782 
	C181.098602,261.838501 188.184845,259.646118 194.906616,254.447922 
M77.114418,192.427185 
	C28.610031,201.678284 25.668491,258.586029 46.312504,282.836365 
	C61.579998,300.770935 81.424522,303.788422 103.142365,299.513336 
	C116.475021,296.888855 116.412560,296.558319 114.775368,283.148010 
	C114.743629,282.888031 114.432335,282.662231 114.263161,282.436096 
	C94.650146,289.240417 75.070236,293.847351 59.190559,275.141937 
	C47.746559,261.661499 46.453144,236.386185 56.573902,221.412827 
	C71.927834,198.697113 93.108246,202.969849 114.629448,210.631332 
	C115.008278,207.712463 115.138016,205.027115 115.742027,202.453049 
	C116.654854,198.562897 115.087250,196.928680 111.454071,195.635605 
	C100.521584,191.744644 89.376060,190.975540 77.114418,192.427185 
M322.466919,235.499878 
	C322.466919,256.579590 322.466919,277.659332 322.466919,298.782562 
	C327.570099,298.782562 332.001373,298.782562 337.088806,298.782562 
	C337.088806,268.038757 337.088806,237.543884 337.088806,206.657867 
	C347.507263,206.657867 357.267334,206.657867 367.234802,206.657867 
	C367.234802,202.214890 367.234802,198.178146 367.234802,194.193253 
	C341.988281,194.193253 317.122284,194.193253 292.231384,194.193253 
	C292.231384,198.496613 292.231384,202.413361 292.231384,206.950699 
	C302.390320,206.950699 312.276855,206.950699 322.467438,206.950699 
	C322.467438,216.550339 322.467438,225.525101 322.466919,235.499878 
z"/>
<path fill="#5FBD40" opacity="1.000000" stroke="none" 
	d="
M102.183502,99.571701 
	C105.814125,98.486115 109.428955,97.343956 113.078362,96.325714 
	C123.395027,93.447205 133.537018,95.339340 143.706390,97.400330 
	C161.815079,101.070328 179.961304,104.554825 198.075577,108.197685 
	C208.128372,110.219337 217.228882,108.139130 225.533829,102.251183 
	C239.396408,92.423050 253.005630,82.207176 267.225464,72.926674 
	C273.927124,68.552849 281.499634,64.873726 289.194580,62.779980 
	C313.442413,56.182289 337.934174,50.480888 362.335846,44.449917 
	C363.268188,44.219479 364.244843,44.168079 365.554993,43.983299 
	C366.680664,48.471451 367.763123,52.787277 368.993835,57.694149 
	C363.539978,59.103596 358.294312,60.509106 353.023407,61.812599 
	C332.501495,66.887657 311.918335,71.728638 291.481628,77.125191 
	C286.293732,78.495110 281.159607,80.997803 276.697144,84.011200 
	C263.446442,92.959061 250.295853,102.095879 237.568954,111.767838 
	C223.123108,122.746109 207.520081,125.598877 189.970764,121.645927 
	C171.138351,117.403984 152.161789,113.757561 133.159866,110.342354 
	C128.055374,109.424927 122.629593,110.295143 116.673172,110.629143 
	C111.385605,113.409988 106.776161,115.906433 102.166725,118.402878 
	C83.564964,139.452271 64.965340,160.503555 46.358391,181.548370 
	C44.288097,183.889923 42.176109,186.194595 39.819553,188.809158 
	C36.084507,185.535812 32.647911,182.524033 28.943605,179.277649 
	C40.033394,166.662689 50.908432,154.347443 61.720123,141.976837 
	C71.336784,130.973572 80.883247,119.908974 90.835129,108.443497 
	C94.867554,105.200935 98.525528,102.386322 102.183502,99.571701 
z"/>
<path fill="#8A8A8A" opacity="1.000000" stroke="none" 
	d="
M102.477737,118.571976 
	C106.776161,115.906433 111.385605,113.409988 116.358963,110.886505 
	C122.194023,113.196587 127.548653,115.870148 133.156525,117.812584 
	C157.381317,126.203461 181.701279,134.319427 205.933289,142.689774 
	C210.428375,144.242493 214.542206,144.262924 219.013229,142.584656 
	C234.910904,136.617294 250.920883,130.949768 266.840515,125.039902 
	C274.824860,122.075851 282.514893,122.313126 289.937317,126.550385 
	C315.541931,141.167358 341.120789,155.829559 366.703400,170.485077 
	C367.124756,170.726456 367.469940,171.100739 368.436737,171.893692 
	C366.261017,175.787323 364.041931,179.758545 361.505524,184.297668 
	C352.611511,179.233322 343.985077,174.341858 335.378265,169.416107 
	C318.608704,159.818756 301.785217,150.312744 285.126160,140.527023 
	C280.051392,137.546036 275.332336,137.394150 269.932587,139.431503 
	C253.889420,145.484665 237.726547,151.219940 221.629868,157.132248 
	C215.595993,159.348495 209.636368,159.354141 203.553360,157.274490 
	C174.724762,147.418610 145.808487,137.812576 117.090904,127.644569 
	C111.920853,125.814003 107.536087,121.765549 102.477737,118.571976 
z"/>
<path fill="#5FBD40" opacity="1.000000" stroke="none" 
	d="
M220.796021,295.955627 
	C219.507828,297.242188 218.403183,298.811615 217.175247,298.914886 
	C213.223770,299.247192 209.226807,299.038605 204.580460,299.038605 
	C207.239716,291.507324 209.693512,284.481171 212.199707,277.473724 
	C221.610275,251.161194 231.109421,224.879913 240.373932,198.516129 
	C241.610474,194.997391 243.099991,193.595581 247.000381,193.700394 
	C257.454681,193.981308 257.426544,193.785034 260.950623,203.661209 
	C271.627319,233.582489 282.334656,263.492798 293.021057,293.410614 
	C293.627563,295.108612 294.153503,296.835419 294.876892,299.035309 
	C290.322815,299.035309 286.172546,299.251190 282.071503,298.897003 
	C280.918732,298.797394 279.396057,297.221436 278.920929,295.985260 
	C276.176331,288.844452 273.583710,281.639221 271.183197,274.375305 
	C270.322968,271.772186 269.156921,270.710754 266.265594,270.758850 
	C255.278503,270.941559 244.284897,270.936493 233.297546,270.761871 
	C230.424835,270.716248 229.186493,271.757355 228.330185,274.367035 
	C225.996750,281.478241 223.409714,288.506256 220.796021,295.955627 
M261.509949,246.941254 
	C257.739594,236.354507 253.969238,225.767746 249.755569,213.936218 
	C244.358795,229.162003 239.447998,243.016663 234.344269,257.415680 
	C244.972198,257.415680 254.800217,257.415680 265.193848,257.415680 
	C263.963531,253.865616 262.888672,250.764114 261.509949,246.941254 
z"/>
<path fill="#5EBD3F" opacity="1.000000" stroke="none" 
	d="
M194.632019,254.679108 
	C188.184845,259.646118 181.098602,261.838501 173.427673,262.020782 
	C165.801697,262.202026 158.168076,262.060516 150.048309,262.060516 
	C150.048309,274.508026 150.048309,286.417175 150.048309,298.680359 
	C144.846664,298.680359 140.134567,298.680359 135.133972,298.680359 
	C135.133972,263.870972 135.133972,229.141235 135.133972,194.645035 
	C150.208572,194.645035 165.242844,193.470932 180.004257,194.975006 
	C194.788437,196.481384 202.424973,205.154099 204.448959,219.893784 
	C206.187500,232.554733 205.541779,244.996948 194.632019,254.679108 
M170.247665,249.160309 
	C181.395523,248.355591 187.741028,244.150314 189.328873,235.066284 
	C190.216827,229.986237 189.784485,224.490265 188.948700,219.343842 
	C188.032501,213.702209 184.110641,209.233658 178.559738,208.406433 
	C169.199265,207.011505 159.650833,206.877838 150.183807,206.213898 
	C150.183807,221.350815 150.183807,235.079788 150.183807,249.245941 
	C156.750671,249.245941 163.028488,249.245941 170.247665,249.160309 
z"/>
<path fill="#5FBD40" opacity="1.000000" stroke="none" 
	d="
M77.544266,192.356506 
	C89.376060,190.975540 100.521584,191.744644 111.454071,195.635605 
	C115.087250,196.928680 116.654854,198.562897 115.742027,202.453049 
	C115.138016,205.027115 115.008278,207.712463 114.629448,210.631332 
	C93.108246,202.969849 71.927834,198.697113 56.573902,221.412827 
	C46.453144,236.386185 47.746559,261.661499 59.190559,275.141937 
	C75.070236,293.847351 94.650146,289.240417 114.263161,282.436096 
	C114.432335,282.662231 114.743629,282.888031 114.775368,283.148010 
	C116.412560,296.558319 116.475021,296.888855 103.142365,299.513336 
	C81.424522,303.788422 61.579998,300.770935 46.312504,282.836365 
	C25.668491,258.586029 28.610031,201.678284 77.544266,192.356506 
z"/>
<path fill="#5EBD3F" opacity="1.000000" stroke="none" 
	d="
M322.467163,234.999863 
	C322.467438,225.525101 322.467438,216.550339 322.467438,206.950699 
	C312.276855,206.950699 302.390320,206.950699 292.231384,206.950699 
	C292.231384,202.413361 292.231384,198.496613 292.231384,194.193253 
	C317.122284,194.193253 341.988281,194.193253 367.234802,194.193253 
	C367.234802,198.178146 367.234802,202.214890 367.234802,206.657867 
	C357.267334,206.657867 347.507263,206.657867 337.088806,206.657867 
	C337.088806,237.543884 337.088806,268.038757 337.088806,298.782562 
	C332.001373,298.782562 327.570099,298.782562 322.466919,298.782562 
	C322.466919,277.659332 322.466919,256.579590 322.467163,234.999863 
z"/>
<path fill="#8A8A8A" opacity="1.000000" stroke="none" 
	d="
M101.995590,99.245209 
	C98.525528,102.386322 94.867554,105.200935 90.907349,108.086449 
	C75.562775,96.059708 60.511391,83.973297 45.482651,71.858788 
	C39.657722,67.163376 33.884029,62.404400 27.670300,57.334381 
	C30.664251,53.560982 33.512539,49.971172 36.785095,45.846638 
	C58.581871,63.637383 80.194771,81.278046 101.995590,99.245209 
z"/>
<path fill="#F9FCF8" opacity="1.000000" stroke="none" 
	d="
M261.661865,247.301941 
	C262.888672,250.764114 263.963531,253.865616 265.193848,257.415680 
	C254.800217,257.415680 244.972198,257.415680 234.344269,257.415680 
	C239.447998,243.016663 244.358795,229.162003 249.755569,213.936218 
	C253.969238,225.767746 257.739594,236.354507 261.661865,247.301941 
z"/>
<path fill="#FEFFFE" opacity="1.000000" stroke="none" 
	d="
M169.776978,249.203125 
	C163.028488,249.245941 156.750671,249.245941 150.183807,249.245941 
	C150.183807,235.079788 150.183807,221.350815 150.183807,206.213898 
	C159.650833,206.877838 169.199265,207.011505 178.559738,208.406433 
	C184.110641,209.233658 188.032501,213.702209 188.948700,219.343842 
	C189.784485,224.490265 190.216827,229.986237 189.328873,235.066284 
	C187.741028,244.150314 181.395523,248.355591 169.776978,249.203125 
z"/>
</svg>